<?xml version="1.0" encoding="UTF-8"?>
<svg width="32" height="32" viewBox="0 0 32 32" fill="none" xmlns="http://www.w3.org/2000/svg">
  <path d="M8 20V24C8 25.1046 8.89543 26 10 26H22C23.1046 26 24 25.1046 24 24V20H8Z" fill="#4B5563"/>
  <path d="M16 6C12.6863 6 10 8.68629 10 12C10 13.5367 10.5762 14.9385 11.5279 16H8C6.34315 16 5 17.3431 5 19C5 20.6569 6.34315 22 8 22H24C25.6569 22 27 20.6569 27 19C27 17.3431 25.6569 16 24 16H20.4721C21.4238 14.9385 22 13.5367 22 12C22 8.68629 19.3137 6 16 6Z" fill="#3B82F6"/>
</svg> 